<?xml version="1.0" standalone="no"?>
<!DOCTYPE svg PUBLIC "-//W3C//DTD SVG 1.1//EN" "http://www.w3.org/Graphics/SVG/1.1/DTD/svg11.dtd">
<svg version="1.1" xmlns="http://www.w3.org/2000/svg" viewBox="0 0 164.22866642639042 165.73486561700702" width="328.45733285278084" height="331.46973123401403"><!-- svg-source:excalidraw --><metadata></metadata><defs><style class="style-fonts">
      </style></defs><g stroke-linecap="round"><g transform="translate(14.19268701054159 50.64308631010351) rotate(0 42.57520260445773 -0.9689227343897926)"><path d="M0.73 0.32 C14.79 0.34, 71.54 -0.14, 85.5 -0.65 M-0.35 -0.56 C13.54 -0.78, 71.1 -2.02, 85.12 -2.26" stroke="#1e1e1e" stroke-width="2" fill="none"></path></g></g><mask></mask><g stroke-linecap="round"><g transform="translate(14.07159326054159 51.19777381010351) rotate(0 -0.7402253212779897 51.96730079151692)"><path d="M0.8 0.29 C0.36 17.68, -1.19 86.28, -1.51 103.38 M-0.24 -0.6 C-0.91 17.01, -2.08 87.17, -2.28 104.54" stroke="#1e1e1e" stroke-width="2" fill="none"></path></g></g><mask></mask><g stroke-linecap="round"><g transform="translate(11.34503076054159 153.9907425601035) rotate(0 53.629597892537674 -0.23098192858111588)"><path d="M0.07 -0.13 C18.18 -0.36, 90.71 -0.57, 108.6 -0.71 M-1.35 -1.24 C16.66 -1.33, 90.01 0.55, 107.95 0.78" stroke="#1e1e1e" stroke-width="2" fill="none"></path></g></g><mask></mask><g stroke-linecap="round"><g transform="translate(118.89190576054159 151.9243363101035) rotate(0 0.7641837549954289 -45.652838423326614)"><path d="M0.8 0.22 C0.71 -14.65, -0.34 -74.74, -0.39 -89.87 M-0.23 -0.71 C0.05 -15.85, 1.9 -76.78, 1.91 -91.52" stroke="#1e1e1e" stroke-width="2" fill="none"></path></g></g><mask></mask><g stroke-linecap="round"><g transform="translate(26.92706201054159 77.84621131010351) rotate(0 10.60151697360908 22.70037825426087)"><path d="M0.89 0.61 C4.37 8.19, 18.18 37.1, 21.3 44.56 M-0.1 -0.11 C3.22 7.65, 16.93 37.73, 20.6 45.51" stroke="transparent" stroke-width="2" fill="none"></path></g></g><mask></mask><g stroke-linecap="round"><g transform="translate(48.26690576054159 120.39308631010351) rotate(0 52.74254434891043 -54.37167874404227)"><path d="M-0.48 -0.63 C17.04 -19.06, 88.29 -92.33, 105.96 -110.39 M1.47 1.65 C18.8 -16.67, 88.04 -90.54, 105.26 -109.34" stroke="transparent" stroke-width="2" fill="none"></path></g></g><mask></mask></svg>