<?xml version="1.0" standalone="no"?>
<!DOCTYPE svg PUBLIC "-//W3C//DTD SVG 1.1//EN" "http://www.w3.org/Graphics/SVG/1.1/DTD/svg11.dtd">
<svg version="1.1" xmlns="http://www.w3.org/2000/svg" viewBox="0 0 71.38333414702265 72.5243863646732" width="142.7666682940453" height="145.0487727293464"><!-- svg-source:excalidraw --><metadata></metadata><defs><style class="style-fonts">
      </style></defs><g stroke-linecap="round" transform="translate(10 10) rotate(0 25.691667073511326 26.262193182336603)"><path d="M27.74 0.14 L49.89 27.6 L26.34 54.18 L0.4 28.02" stroke="none" stroke-width="0" fill="#ffffff" fill-rule="evenodd"></path><path d="M26 0 C34.46 11.79, 44.23 22.42, 51.38 27 M26 0 C33.24 7.09, 39.7 14.06, 51.38 27 M51.38 27 C42.33 34.86, 30.16 44.44, 26 52.52 M51.38 27 C41.7 35.55, 31.71 45.5, 26 52.52 M26 52.52 C16.29 45.24, 8.94 36.38, 0 27 M26 52.52 C19.64 46.2, 13.01 39.35, 0 27 M0 27 C6.92 17.21, 14.63 11.22, 26 0 M0 27 C8.63 16.89, 18.97 8.07, 26 0" stroke="#ffffff" stroke-width="2" fill="none"></path></g><g stroke-linecap="round" transform="translate(9.186289313760653 10.044690244536696) rotate(44.250081775203036 25.691667073511326 26.262193182336603)"><path d="M26.44 1.69 L51.09 25.98 L25.66 54.37 L-0.03 25" stroke="none" stroke-width="0" fill="#ffffff" fill-rule="evenodd"></path><path d="M26 0 C35.18 8.17, 44.64 19.64, 51.38 27 M26 0 C35.54 10.98, 46.52 22.2, 51.38 27 M51.38 27 C42.59 36.75, 34.12 41.74, 26 52.52 M51.38 27 C43.31 34.95, 35.67 43.32, 26 52.52 M26 52.52 C17.01 44.02, 8.26 34.46, 0 27 M26 52.52 C19.9 46, 11.08 38.21, 0 27 M0 27 C8.26 19.52, 15.61 11.5, 26 0 M0 27 C9.13 17, 18.76 6.68, 26 0" stroke="#ffffff" stroke-width="2" fill="none"></path></g></svg>